<?xml version="1.0" standalone="no"?>
<!DOCTYPE svg PUBLIC "-//W3C//DTD SVG 20010904//EN"
 "http://www.w3.org/TR/2001/REC-SVG-20010904/DTD/svg10.dtd">
<svg version="1.0" xmlns="http://www.w3.org/2000/svg"
 width="260.000000pt" height="260.000000pt" viewBox="0 0 260.000000 260.000000"
 preserveAspectRatio="xMidYMid meet">
<metadata>
Created by potrace 1.11, written by Peter Selinger 2001-2013
</metadata>
<g transform="translate(0.000000,260.000000) scale(0.100000,-0.100000)"
fill="#000000" stroke="none">
<path d="M1229 2286 c-2 -2 -24 -7 -49 -10 -218 -30 -424 -160 -547 -346 -58
-88 -73 -119 -107 -221 -40 -125 -51 -205 -51 -389 0 -169 7 -231 41 -346 53
-184 147 -325 294 -439 143 -111 317 -164 528 -163 368 2 619 176 742 516 30
82 31 102 7 102 -10 0 -160 45 -314 94 -20 6 -24 2 -39 -51 -72 -251 -263
-379 -497 -333 -163 31 -279 137 -331 303 -34 110 -37 128 -41 302 -8 332 62
505 248 613 84 49 240 65 341 35 124 -36 223 -128 261 -244 13 -38 21 -49 33
-45 10 3 85 21 167 41 199 47 187 40 169 95 -46 140 -150 283 -258 355 -60 39
-170 91 -212 100 -16 3 -40 8 -54 11 -14 3 -41 9 -60 13 -35 8 -264 13 -271 7z"/>
</g>
</svg>
